
<svg width="81px" height="13px" viewBox="0 0 81 13" version="1.1" xmlns="http://www.w3.org/2000/svg" xmlns:xlink="http://www.w3.org/1999/xlink">
    <!-- Generator: Sketch 50.2 (55047) - http://www.bohemiancoding.com/sketch -->
    <desc>Created with Sketch.</desc>
    <defs>
        <path d="M0.00544186046,7.39790163 C0.0608962903,9.00469856 0.524434997,10.2255828 1.39605798,11.0605544 C2.32690324,11.9522581 3.60250599,12.3981099 5.22286625,12.3981099 C6.02730042,12.3981099 6.75703714,12.2866938 7.41207639,12.0636742 C8.06711564,11.8407483 8.6244736,11.5035951 9.08415027,11.0519335 C9.54382694,10.6003657 9.89725048,10.0373817 10.1442325,9.36288795 C10.3914029,8.68839419 10.5148939,7.8938634 10.5148939,6.97929559 L10.5148939,0.205777757 L7.86026114,0.205777757 L7.86026114,7.08218447 C7.86026114,8.04248067 7.63042281,8.76270282 7.17074614,9.24285092 C6.71106947,9.72299902 6.07326809,9.96307307 5.257342,9.96307307 C4.44141591,9.96307307 3.80361454,9.7144718 3.34393787,9.21708185 C2.8842612,8.7197856 2.65442286,7.97960414 2.65442286,6.99644374 L2.65442286,0.205777757 L0.00544186046,0.205777757 L0.00544186046,7.39790163 L0.00544186046,7.39790163 Z M13.5038284,0.205777757 L15.9516067,0.205777757 L21.6056297,7.59662887 L21.6056297,0.205777757 L24.2257867,0.205777757 L24.2257867,12.2094803 L21.9676251,12.2094803 L16.1239854,4.5785551 L16.1239854,12.2094803 L13.5038284,12.2094803 L13.5038284,0.205777757 Z M48.2344731,9.98022122 C48.7631013,9.98022122 49.2515077,9.88304839 49.6996925,9.68870273 C50.1478772,9.49435707 50.5299364,9.22570278 50.8460583,8.88273985 C51.162086,8.53977692 51.409068,8.14255838 51.5872869,7.69099052 C51.7654116,7.23932896 51.8544269,6.75636969 51.8544269,6.2419253 L51.8544269,6.20762901 C51.8544269,5.69318461 51.7654116,5.20732046 51.5872869,4.75003656 C51.409068,4.29275265 51.15634,3.89262924 50.8288204,3.54966631 C50.5012066,3.20670338 50.1134015,2.93523792 49.6652167,2.7350825 C49.217032,2.53502079 48.7286255,2.43503679 48.1999973,2.43503679 C47.6598773,2.43503679 47.1686449,2.53220962 46.7262061,2.72655528 C46.2836731,2.92090094 45.9045341,3.18955523 45.5885064,3.53251816 C45.2724786,3.87548109 45.0254024,4.27269963 44.8472777,4.72426749 C44.6690588,5.17592905 44.5800436,5.65888832 44.5800436,6.17333271 L44.5800436,6.20762901 C44.5800436,6.7220734 44.6690588,7.20793755 44.8472777,7.66522145 C45.0254024,8.12250536 45.2781304,8.52262877 45.60565,8.8655917 C45.9332639,9.20855463 46.3181489,9.48002009 46.7606819,9.6800818 C47.2031207,9.88023722 47.694353,9.98022122 48.2344731,9.98022122 Z M48.1999973,12.415258 C47.2691521,12.415258 46.4130043,12.2523975 45.6315539,11.926489 C44.8501036,11.6006742 44.1750006,11.1606322 43.6060565,10.6060817 C43.0372066,10.051625 42.594862,9.40008912 42.2788343,8.65119302 C41.9628066,7.90239062 41.8047457,7.09933262 41.8047457,6.2419253 L41.8047457,6.20762901 C41.8047457,5.35022168 41.9656325,4.54716368 42.2874062,3.79836129 C42.6091798,3.04946519 43.0545387,2.39221328 43.6233886,1.82632445 C44.1922385,1.26034191 44.8702616,0.814583808 45.6573637,0.48867532 C46.4446542,0.162860538 47.3036278,0 48.2344731,0 C49.1653183,0 50.0214661,0.162860538 50.8029165,0.48867532 C51.5843668,0.814583808 52.2594698,1.25462586 52.8283197,1.8091763 C53.3972638,2.36363303 53.8397026,3.01516889 54.1556361,3.76406499 C54.471758,4.51286739 54.6297247,5.31592539 54.6297247,6.17333271 L54.6297247,6.20762901 C54.6297247,7.06503633 54.4688379,7.86809433 54.1470642,8.61689672 C53.8252906,9.36579282 53.3800259,10.0230447 52.811176,10.5889336 C52.2422319,11.1549161 51.5643031,11.6006742 50.7771068,11.926489 C49.9899105,12.2523975 49.1308426,12.415258 48.1999973,12.415258 Z M62.617643,6.03614754 C63.2726823,6.03614754 63.7754065,5.88181422 64.12591,5.57314759 C64.4765077,5.26448095 64.6517123,4.85292544 64.6517123,4.33848105 L64.6517123,4.30418475 C64.6517123,3.73257987 64.4678416,3.30387621 64.1001003,3.01807377 C63.732359,2.73227133 63.2209687,2.58937011 62.5659294,2.58937011 L59.9285345,2.58937011 L59.9285345,6.03614754 L62.617643,6.03614754 Z M57.2739018,0.205777757 L62.7900218,0.205777757 C64.3184467,0.205777757 65.4906222,0.611617222 66.3065483,1.42329615 C66.9960633,2.10922201 67.3408208,3.02378982 67.3408208,4.16699958 C67.3408208,5.17302417 67.1024106,5.96465008 66.6254019,6.5762673 C66.1484873,7.18797823 65.525098,7.63664121 64.7551395,7.92244365 L67.7028162,12.2094803 L64.5999987,12.2094803 L62.0143174,8.36829545 L59.9285345,8.36829545 L59.9285345,12.2094803 L57.2739018,12.2094803 L57.2739018,0.205777757 Z M70.0194736,0.205777757 L72.6741063,0.205777757 L72.6741063,5.45311056 L77.5696629,0.205777757 L80.7759076,0.205777757 L75.8631132,5.29877724 L81,12.2094803 L77.8109931,12.2094803 L74.0703742,7.09933262 L72.6741063,8.53977692 L72.6741063,12.2094803 L70.0194736,12.2094803 L70.0194736,0.205777757 Z M31.983871,12 C31.1129032,12 30.311828,11.8425867 29.5806452,11.527579 C28.8494624,11.2126619 28.217786,10.7873381 27.6855279,10.2513359 C27.1531817,9.71542433 26.7392914,9.08568064 26.4435925,8.36183317 C26.1478054,7.63807626 26,6.86187845 26,6.03314917 C26,5.17127072 26.1505376,4.39507291 26.4516129,3.671316 C26.7526882,2.94746853 27.1693108,2.31219998 27.7015688,1.76523866 C28.233915,1.21818676 28.8682355,0.787338103 29.6048828,0.472330405 C30.3414419,0.157413278 31.1451613,0 32.016129,0 C32.8870968,0 33.688172,0.157413278 34.4193548,0.472330405 C35.1505376,0.787338103 35.782214,1.2126619 36.3145602,1.74866407 C36.8468183,2.28457567 37.2607968,2.91431936 37.5564957,3.63816683 C37.8521946,4.36192374 38,5.13812155 38,5.96685083 C38,6.82872928 37.8494624,7.60492709 37.5483871,8.328684 C37.2473118,9.05253147 36.8306892,9.68780002 36.2984312,10.2347613 C35.766085,10.7818132 35.1317645,11.2126619 34.3952054,11.527579 C33.6585581,11.8425867 32.8548387,12 31.983871,12 Z M32.0634585,9.73824835 C31.5580821,9.73824835 31.0984488,9.64160855 30.6844703,9.44814781 C30.2704037,9.25477765 29.9102767,8.99239199 29.603737,8.66090028 C29.2972854,8.32940857 29.0608144,7.94266824 28.8940596,7.50067929 C28.7274811,7.05869034 28.6441036,6.58907708 28.6441036,6.09183951 L28.6441036,6.05869034 C28.6441036,5.56145277 28.7274811,5.09464722 28.8940596,4.65809256 C29.0608144,4.22162848 29.291909,3.83769586 29.5876961,3.50620415 C29.883395,3.17471244 30.2382337,2.91504393 30.6522122,2.72719862 C31.0661907,2.53935332 31.5258241,2.44543067 32.0312004,2.44543067 C32.5258241,2.44543067 32.9828133,2.54207046 33.4021682,2.73544063 C33.821523,2.92890137 34.1843822,3.19128702 34.4908338,3.52277873 C34.7973735,3.85427045 35.0339327,4.24101078 35.2005993,4.68299973 C35.367266,5.12498868 35.4505553,5.59460194 35.4505553,6.09183951 L35.4505553,6.12498868 C35.4505553,6.62222625 35.367266,7.08903179 35.2005993,7.52549588 C35.0339327,7.96205054 34.8027499,8.34598315 34.5070509,8.67747487 C34.2112639,9.00896658 33.8537811,9.26863509 33.4344262,9.45648039 C33.0150714,9.6443257 32.5580821,9.73824835 32.0634585,9.73824835 Z M32,12 L32,10 L39,10 L39,12 L32,12 Z" id="path-1"></path>
    </defs>
    <g id="Desktop" stroke="none" stroke-width="1" fill="none" fill-rule="evenodd">
        <g id="Desktop-NavBar-interaction" transform="translate(-733.000000, -29.000000)">
            <g id="Group-30" transform="translate(41.000000, 24.000000)">
                <g id="Navigation/Left-Menu-Expanded" transform="translate(692.000000, 5.000000)">
                    <g id="unqork-logo">
                        <g id="Group-3">
                            <mask id="mask-2" fill="white">
                                <use xlink:href="#path-1"></use>
                            </mask>
                            <use id="Clip-2" fill="#000000" xlink:href="#path-1"></use>
                        </g>
                    </g>
                </g>
            </g>
        </g>
    </g>
</svg>
