
<svg width="464px" height="47px" viewBox="0 0 464 47" version="1.1" xmlns="http://www.w3.org/2000/svg" xmlns:xlink="http://www.w3.org/1999/xlink">
    <!-- Generator: Sketch 50.2 (55047) - http://www.bohemiancoding.com/sketch -->
    <desc>Created with Sketch.</desc>
    <defs></defs>
    <g id="Symbols" stroke="none" stroke-width="1" fill="none" fill-rule="evenodd">
        <g id="parts/SiteHead" transform="translate(-489.000000, -30.000000)" fill="#000000">
            <g id="SiteHead">
                <g id="Bar">
                    <g id="Header">
                        <path d="M527.189453,31.0410156 L528.128906,31.7011719 C527.773436,33.3431072 527.286787,34.6380161 526.668945,35.5859375 C526.051104,36.5338589 525.145514,37.2828749 523.952148,37.8330078 C522.758783,38.3831408 521.383471,38.6582031 519.826172,38.6582031 C518.996741,38.6582031 517.989589,38.6074224 516.804687,38.5058594 L516.804687,64.1757812 C519.377617,63.3971315 521.425774,62.3942119 522.949219,61.1669922 C524.472664,59.9397725 525.886061,58.1751417 527.189453,55.8730469 L528.128906,56.3300781 C527.384111,58.5983186 526.520838,60.4179619 525.539062,61.7890625 C523.964836,64.0065215 521.933606,65.7626888 519.445312,67.0576172 C516.957019,68.3525455 514.079443,69 510.8125,69 C507.630192,69 504.651055,68.3906311 501.875,67.171875 C500.266919,66.4609339 498.794277,65.462246 497.457031,64.1757812 C496.119785,62.8893165 495.023767,61.3320404 494.168945,59.5039062 C493.314123,57.6757721 492.886719,55.6022251 492.886719,53.2832031 C492.886719,50.9472539 493.352209,48.7129013 494.283203,46.5800781 C495.214197,44.447255 496.585277,42.4075618 498.396484,40.4609375 C499.547532,39.2421814 501.172515,37.8964917 503.271484,36.4238281 L500.072266,36.2460938 C498.887364,36.1783851 497.575528,36.4280571 496.136719,36.9951172 C494.697909,37.5621773 493.576501,38.3196567 492.772461,39.2675781 C491.96842,40.2154995 491.270185,41.6288969 490.677734,43.5078125 L489.738281,42.9492188 C490.313805,40.5455609 491.058589,38.6751369 491.972656,37.3378906 C493.191412,35.560538 494.799469,34.1852262 496.796875,33.2119141 C498.794281,32.2386019 501.070951,31.7519531 503.626953,31.7519531 C505.404306,31.7519531 508.544248,32.1243452 513.046875,32.8691406 C517.549502,33.613936 520.647127,33.9863281 522.339844,33.9863281 C523.473964,33.9863281 524.341468,33.8128273 524.942383,33.4658203 C525.543297,33.1188134 526.292313,32.3105532 527.189453,31.0410156 Z M506.115234,36.6777344 L504.769531,36.5507812 C502.501291,38.4974056 500.83399,40.4440007 499.767578,42.390625 C498.328769,45.014336 497.609375,47.7141788 497.609375,50.4902344 C497.609375,55.2298414 499.55597,59.0976413 503.449219,62.09375 C504.684902,61.0611928 505.43815,60.2233105 505.708984,59.5800781 C505.979819,58.9368457 506.115234,57.6250099 506.115234,55.6445312 L506.115234,36.6777344 Z M515.636719,38.2773438 C514.028638,38.0572906 512.606777,37.8203138 511.371094,37.5664062 L511.371094,52.75 C511.371094,54.5273526 511.299154,55.6572242 511.155273,56.1396484 C511.011392,56.6220727 510.677086,57.1679657 510.152344,57.7773438 C509.204422,58.8268282 507.308608,60.4856657 504.464844,62.7539062 C505.886726,63.4479201 507.037756,63.9134103 507.917969,64.1503906 C509.441414,64.5566427 510.905592,64.7597656 512.310547,64.7597656 C513.055342,64.7597656 514.164055,64.6666676 515.636719,64.4804688 L515.636719,38.2773438 Z M541.276562,32.6152344 L541.530469,33.2246094 C540.32864,34.0032591 539.507684,34.8326779 539.067578,35.7128906 C538.627472,36.5931034 538.407422,37.9895738 538.407422,39.9023438 L538.407422,48.1796875 L546.253125,41.9335938 C547.928915,43.0169325 549.0207,44.0621694 549.528516,45.0693359 C550.036331,46.0765024 550.290234,47.7903525 550.290234,50.2109375 L550.290234,61.7128906 C550.290234,63.9134225 550.061721,65.5214793 549.604687,66.5371094 C548.876819,68.1959718 547.53113,69.7532479 545.567578,71.2089844 C542.994649,73.1386815 539.719291,74.8059826 535.741406,76.2109375 L535.385937,75.2714844 C538.619026,73.9342381 540.870306,72.7155003 542.139844,71.6152344 C543.409381,70.5149685 544.2388,69.3470114 544.628125,68.1113281 C544.915887,67.1803339 545.059766,64.7597852 545.059766,60.8496094 L545.059766,50.2109375 C545.059766,49.0260357 544.941277,48.2050804 544.704297,47.7480469 C544.348826,47.1217417 543.69714,46.5039093 542.749219,45.8945312 L538.407422,49.4238281 L538.407422,63.5664062 L540.210156,65.3691406 L535.741406,69 L531.221875,65.3691406 L533.227734,63.3632812 L533.227734,40.2578125 C533.227734,38.1588437 533.041538,36.720056 532.669141,35.9414062 C532.296743,35.1627565 531.560422,34.4602896 530.460156,33.8339844 L530.739453,33.2246094 C531.636593,33.4785169 532.355987,33.7620427 532.897656,34.0751953 C533.439326,34.3883479 534.150256,34.9342409 535.030469,35.7128906 C536.063026,34.7311149 537.05325,34.011721 538.001172,33.5546875 C538.949093,33.097654 540.040879,32.7845061 541.276562,32.6152344 Z M565.85,41.9335938 L573.010156,50.2871094 L561.635156,58.2597656 L561.635156,62.8808594 L567.525781,65.2167969 L571.512109,62.5 L572.070703,63.2617188 L563.844141,69 C562.168351,68.1028601 560.788807,67.4596374 559.705469,67.0703125 C558.62213,66.6809876 557.081781,66.2747417 555.084375,65.8515625 L555.084375,65.2167969 C555.659899,64.8782535 556.044986,64.4593124 556.239648,63.9599609 C556.434311,63.4606095 556.531641,62.3815187 556.531641,60.7226562 L556.531641,46.1992188 C558.122794,45.623695 559.443094,45.0989607 560.492578,44.625 C561.254301,44.2695295 563.04009,43.372403 565.85,41.9335938 Z M561.990625,44.8535156 L561.635156,45.03125 L561.635156,56.5332031 L568.312891,51.8613281 L561.990625,44.8535156 Z M622.791797,30.5332031 L623.274219,31.7011719 C622.055463,32.2936228 621.154104,32.881833 620.570117,33.4658203 C619.98613,34.0498076 619.575652,34.7014938 619.338672,35.4208984 C619.101691,36.1403031 618.983203,37.2109304 618.983203,38.6328125 C618.983203,39.089846 618.991667,39.6992149 619.008594,40.4609375 L619.440234,59.4277344 C619.474089,61.509776 619.694139,62.8723926 620.100391,63.515625 C620.388152,63.9726585 620.735154,64.2011719 621.141406,64.2011719 C621.632294,64.2011719 622.394005,63.7102914 623.426562,62.7285156 L624.162891,63.6679688 L619.440234,67.7050781 L617.866016,69 C616.528769,68.3736948 615.57663,67.544276 615.00957,66.5117188 C614.44251,65.4791615 614.12513,63.8287874 614.057422,61.5605469 L604.23125,69 C598.763775,65.3945132 595.039854,63.5917969 593.059375,63.5917969 C592.568487,63.5917969 592.153778,63.7441391 591.815234,64.0488281 C591.561327,64.2688813 591.434375,64.5820292 591.434375,64.9882812 C591.434375,65.4283876 591.595181,65.9108047 591.916797,66.4355469 C592.339976,67.1464879 592.551562,67.6119781 592.551562,67.8320312 C592.551562,68.1536474 592.433074,68.4287098 592.196094,68.6572266 C591.959113,68.8857433 591.671356,69 591.332812,69 C590.909633,69 590.571095,68.8307309 590.317187,68.4921875 C589.94479,68.035154 589.758594,67.442712 589.758594,66.7148438 C589.758594,65.9023397 589.991339,64.9925181 590.456836,63.9853516 C590.922333,62.9781851 591.612105,61.8821674 592.526172,60.6972656 C592.712371,60.4433581 592.88164,60.2063813 593.033984,59.9863281 L596.664844,55.0351562 C594.210404,53.1900949 592.488091,51.4212324 591.497852,49.7285156 C590.507612,48.0357988 590.0125,46.1399845 590.0125,44.0410156 C590.0125,41.6035034 590.634564,39.3437604 591.878711,37.2617188 C593.122858,35.1796771 594.993282,33.5377664 597.490039,32.3359375 C599.986796,31.1341086 602.555455,30.5332031 605.196094,30.5332031 C609.241687,30.5332031 613.143341,31.938137 616.901172,34.7480469 C617.815239,33.7831983 618.695438,32.9918651 619.541797,32.3740234 C620.388155,31.7561818 621.471478,31.1425812 622.791797,30.5332031 Z M610.299609,36.4238281 C608.166786,35.3743437 606.042458,34.8496094 603.926562,34.8496094 C601.675249,34.8496094 599.559385,35.3447216 597.578906,36.3349609 C595.598428,37.3252003 594.117323,38.6031823 593.135547,40.1689453 C592.153771,41.7347083 591.662891,43.3385335 591.662891,44.9804688 C591.662891,48.4505382 593.541778,51.5227731 597.299609,54.1972656 L605.780078,42.59375 C604.51054,41.8997361 603.367974,41.5527344 602.352344,41.5527344 C600.947389,41.5527344 599.796359,42.212884 598.899219,43.5332031 C598.729947,43.8040378 598.560678,43.9394531 598.391406,43.9394531 C598.289843,43.9394531 598.192513,43.8886724 598.099414,43.7871094 C598.006315,43.6855464 597.959766,43.5585945 597.959766,43.40625 C597.959766,42.8815078 598.226364,42.1536505 598.75957,41.2226562 C599.292776,40.291662 600.079878,39.5384143 601.120898,38.9628906 C602.161919,38.3873669 603.257937,38.0996094 604.408984,38.0996094 C605.593886,38.0996094 606.939576,38.3873669 608.446094,38.9628906 L610.299609,36.4238281 Z M613.575,39.0390625 C613.084112,38.4973931 612.754037,38.1503914 612.584766,37.9980469 C612.466275,37.8795567 612.043103,37.5664088 611.315234,37.0585938 L600.219531,52.1914062 L613.879687,52.1914062 L613.575,39.0390625 Z M597.477344,55.8984375 L595.192187,59.0722656 L608.090625,64.6328125 L614.082812,60.2148438 L613.98125,55.8984375 L597.477344,55.8984375 Z M661.076172,43.40625 L661.8125,44.0917969 C660.847651,44.9381553 660.200197,45.6152318 659.870117,46.1230469 C659.540037,46.6308619 659.324219,47.1386693 659.222656,47.6464844 C659.121093,48.1542994 659.070312,49.1953046 659.070312,50.7695312 L659.070312,61.3320312 C659.070312,62.720059 659.214191,63.6425758 659.501953,64.0996094 C659.789715,64.5566429 660.060546,64.7851562 660.314453,64.7851562 C660.669924,64.7851562 661.287756,64.446618 662.167969,63.7695312 L662.751953,64.5058594 L657.115234,69 C655.862624,68.0182243 655.050132,67.2057324 654.677734,66.5625 C654.136065,65.6145786 653.865234,64.6074272 653.865234,63.5410156 L653.865234,48.2304688 L651.300781,46.0214844 L647.238281,49.7792969 L647.238281,63.5410156 L649.167969,65.5976562 L644.724609,69 L640.230469,65.5976562 L642.083984,63.5410156 L642.083984,50.921875 C642.083984,49.4492114 641.973959,48.5013042 641.753906,48.078125 C641.449217,47.5026013 640.712896,46.8170613 639.544922,46.0214844 L635.533203,49.3984375 L635.533203,63.5410156 L637.488281,65.5976562 L633.019531,69 L628.474609,65.5976562 L630.455078,63.5410156 L630.455078,49.9570312 C630.455078,48.5520763 630.260419,47.5364615 629.871094,46.9101562 C629.566405,46.4361955 629.287111,46.1992188 629.033203,46.1992188 C628.728514,46.1992188 628.110682,46.5462205 627.179687,47.2402344 L626.621094,46.4023438 L632.15625,41.9335938 C633.307297,42.7460978 634.090167,43.4104792 634.504883,43.9267578 C634.919598,44.4430364 635.211588,45.0058563 635.380859,45.6152344 C635.482422,46.0553407 635.533203,46.9270768 635.533203,48.2304688 L643.099609,41.9335938 C644.758472,43.2539129 645.841794,44.3456988 646.349609,45.2089844 C646.857424,46.0722699 647.153645,47.1725194 647.238281,48.5097656 L654.373047,41.9335938 L658.537109,45.8183594 L661.076172,43.40625 Z M675.772656,32.6152344 L676.026562,33.2246094 C674.824734,34.0032591 674.003778,34.8326779 673.563672,35.7128906 C673.123565,36.5931034 672.903516,37.9895738 672.903516,39.9023438 L672.903516,48.1796875 L680.749219,41.9335938 C682.425008,43.0169325 683.516794,44.0621694 684.024609,45.0693359 C684.532424,46.0765024 684.786328,47.7903525 684.786328,50.2109375 L684.786328,61.7128906 C684.786328,63.9134225 684.557815,65.5214793 684.100781,66.5371094 C683.372913,68.1959718 682.027223,69.7532479 680.063672,71.2089844 C677.490742,73.1386815 674.215384,74.8059826 670.2375,76.2109375 L669.882031,75.2714844 C673.11512,73.9342381 675.3664,72.7155003 676.635937,71.6152344 C677.905475,70.5149685 678.734894,69.3470114 679.124219,68.1113281 C679.411981,67.1803339 679.555859,64.7597852 679.555859,60.8496094 L679.555859,50.2109375 C679.555859,49.0260357 679.437371,48.2050804 679.200391,47.7480469 C678.84492,47.1217417 678.193234,46.5039093 677.245312,45.8945312 L672.903516,49.4238281 L672.903516,63.5664062 L674.70625,65.3691406 L670.2375,69 L665.717969,65.3691406 L667.723828,63.3632812 L667.723828,40.2578125 C667.723828,38.1588437 667.537632,36.720056 667.165234,35.9414062 C666.792837,35.1627565 666.056516,34.4602896 664.95625,33.8339844 L665.235547,33.2246094 C666.132687,33.4785169 666.852081,33.7620427 667.39375,34.0751953 C667.935419,34.3883479 668.64635,34.9342409 669.526562,35.7128906 C670.55912,34.7311149 671.549344,34.011721 672.497266,33.5546875 C673.445187,33.097654 674.536973,32.7845061 675.772656,32.6152344 Z M700.346094,41.9335938 L707.50625,50.2871094 L696.13125,58.2597656 L696.13125,62.8808594 L702.021875,65.2167969 L706.008203,62.5 L706.566797,63.2617188 L698.340234,69 C696.664445,68.1028601 695.284901,67.4596374 694.201562,67.0703125 C693.118224,66.6809876 691.577875,66.2747417 689.580469,65.8515625 L689.580469,65.2167969 C690.155992,64.8782535 690.54108,64.4593124 690.735742,63.9599609 C690.930405,63.4606095 691.027734,62.3815187 691.027734,60.7226562 L691.027734,46.1992188 C692.618888,45.623695 693.939187,45.0989607 694.988672,44.625 C695.750394,44.2695295 697.536184,43.372403 700.346094,41.9335938 Z M696.486719,44.8535156 L696.13125,45.03125 L696.13125,56.5332031 L702.808984,51.8613281 L696.486719,44.8535156 Z M724.335547,41.9335938 L728.169531,46.5292969 L724.335547,49.9316406 L721.136328,45.8945312 L718.622656,48.1796875 L718.622656,62.9824219 L721.517187,65.0644531 L724.132422,62.9824219 L724.716406,63.7949219 L718.216406,69 C716.828378,67.7643167 715.664653,66.8756537 714.725195,66.3339844 C713.785737,65.792315 712.757427,65.3691421 711.640234,65.0644531 L711.640234,64.5058594 C712.38503,63.9811172 712.871679,63.4521511 713.100195,62.9189453 C713.328712,62.3857395 713.442969,61.3658929 713.442969,59.859375 L713.442969,49.5 C713.442969,48.1966081 713.294858,47.3291037 712.998633,46.8974609 C712.702407,46.4658182 712.376564,46.25 712.021094,46.25 C711.631769,46.25 711.098571,46.5885383 710.421484,47.265625 L709.812109,46.5292969 L715.169531,41.9335938 C716.608341,43.0338597 717.590102,43.9902303 718.114844,44.8027344 C718.453387,45.3105494 718.622656,46.0130163 718.622656,46.9101562 L724.335547,41.9335938 Z M744.287891,51.3535156 L750.153125,54.4257812 L750.153125,65.1152344 C748.731243,65.2506517 747.444797,65.5976535 746.29375,66.15625 C745.142703,66.7148465 743.83933,67.6627537 742.383594,69 C741.130983,68.2552046 740.043429,67.7389337 739.120898,67.4511719 C738.198368,67.16341 737.220838,67.0195312 736.188281,67.0195312 C734.597127,67.0195312 733.18373,67.5019483 731.948047,68.4667969 C731.491013,68.8222674 731.160939,69 730.957813,69 C730.771614,69 730.585418,68.906902 730.399219,68.7207031 C730.21302,68.5345043 730.119922,68.3483082 730.119922,68.1621094 C730.119922,67.9589834 730.297654,67.6881527 730.653125,67.3496094 C730.856251,67.1464834 731.203253,66.7571643 731.694141,66.1816406 L734.004688,63.3125 L737.280078,58.9707031 L731.719531,55.9746094 L731.719531,46.5039062 C733.46303,45.9622369 734.829878,45.3570997 735.820117,44.6884766 C736.810357,44.0198534 737.762495,43.1015683 738.676563,41.9335938 C740.84324,42.8476608 742.586712,43.4908836 743.907031,43.8632812 C744.854953,44.1171888 745.760543,44.2441406 746.623828,44.2441406 C747.57175,44.2441406 748.30807,44.0367859 748.832813,43.6220703 C749.357555,43.2073547 749.619922,42.7714867 749.619922,42.3144531 C749.619922,42.0097641 749.450653,41.7050796 749.112109,41.4003906 C748.45195,40.8079397 748.121875,40.2324247 748.121875,39.6738281 C748.121875,39.1490859 748.265754,38.7301448 748.553516,38.4169922 C748.841277,38.1038396 749.162889,37.9472656 749.518359,37.9472656 C749.99232,37.9472656 750.419725,38.1630838 750.800586,38.5947266 C751.181447,39.0263693 751.371875,39.5976527 751.371875,40.3085938 C751.371875,41.036462 751.219533,41.7473924 750.914844,42.4414062 C750.610155,43.1354201 750.026176,44.0325466 749.162891,45.1328125 L744.287891,51.3535156 Z M736.848438,53.1054688 L740.326953,54.9082031 L745.862109,47.5449219 C744.727989,47.8665381 743.746228,48.0273438 742.916797,48.0273438 C740.834755,48.0273438 738.811989,47.3333403 736.848438,45.9453125 L736.848438,53.1054688 Z M741.215625,55.4160156 L735.096484,63.6171875 C735.84128,63.36328 736.535283,63.1770839 737.178516,63.0585938 C737.821748,62.9401036 738.405727,62.8808594 738.930469,62.8808594 C740.877093,62.8808594 742.899859,63.5240821 744.998828,64.8105469 L744.998828,57.4472656 L741.215625,55.4160156 Z M754.236328,44.7265625 L761.320313,35.9667969 L762.056641,35.9667969 L761.802734,42.9746094 L766.90625,42.9746094 L766.90625,45.84375 L761.802734,45.84375 L761.802734,62.9316406 L764.646484,65.0390625 L766.271484,63.7695312 L766.90625,64.53125 L761.320313,69 C759.407543,67.0533757 757.240898,65.7330764 754.820313,65.0390625 L754.820313,64.53125 C755.497399,64.0742165 755.945962,63.6002629 756.166016,63.109375 C756.453777,62.4830698 756.597656,61.5774799 756.597656,60.3925781 L756.597656,45.84375 L754.236328,45.84375 L754.236328,44.7265625 Z M797.949609,31.0410156 L809.451563,34.875 L810.289453,33.3769531 C810.594142,32.8352838 810.80996,32.5009772 810.936914,32.3740234 C811.063868,32.2470697 811.211978,32.1835938 811.38125,32.1835938 C811.550522,32.1835938 811.690169,32.2428379 811.800195,32.3613281 C811.910222,32.4798183 811.965234,32.6152336 811.965234,32.7675781 C811.965234,33.0045585 811.762111,33.4700486 811.355859,34.1640625 L805.998438,43.4316406 L810.187891,43.2792969 C811.50821,43.2285154 813.044327,43.4147114 814.796289,43.8378906 C816.548251,44.2610698 818.054746,44.9169877 819.31582,45.8056641 C820.576894,46.6943404 821.567119,47.7438091 822.286523,48.9541016 C823.005928,50.1643941 823.365625,51.4973886 823.365625,52.953125 C823.365625,55.6276175 822.244217,58.2555209 820.001367,60.8369141 C817.758517,63.4183072 813.767997,66.1393086 808.029688,69 C806.049209,68.1874959 803.747149,67.3326868 801.123438,66.4355469 C796.282267,68.7545689 792.329833,69.9140625 789.266016,69.9140625 C787.082411,69.9140625 785.402415,69.4358772 784.225977,68.4794922 C783.049538,67.5231072 782.461328,66.4186261 782.461328,65.1660156 C782.461328,63.8287694 783.172259,62.6057998 784.594141,61.4970703 C786.016023,60.3883408 788.123424,59.8339844 790.916406,59.8339844 C792.016672,59.8339844 793.387752,59.9524728 795.029688,60.1894531 L796.933984,56.7363281 L793.353906,56.8886719 C792.473694,56.905599 791.28881,56.7828789 789.799219,56.5205078 C788.309628,56.2581367 787.086658,55.8307321 786.130273,55.2382812 C785.173888,54.6458304 784.458726,53.9179731 783.984766,53.0546875 C783.510805,52.1914019 783.273828,51.285812 783.273828,50.3378906 C783.273828,48.8313727 783.807026,47.4941465 784.873438,46.3261719 C785.550524,45.5813765 786.667701,44.9127634 788.225,44.3203125 L788.199609,44.015625 C788.199609,42.4413984 788.897845,40.6344503 790.294336,38.5947266 C791.690827,36.5550028 794.24256,34.0371244 797.949609,31.0410156 Z M807.141016,38.9375 C804.48345,37.6171809 802.409903,36.7327496 800.920313,36.2841797 C799.430722,35.8356097 798.118886,35.6113281 796.984766,35.6113281 C795.393612,35.6113281 794.098703,36.0598913 793.1,36.9570312 C792.101297,37.8541712 791.601953,38.9036398 791.601953,40.1054688 C791.601953,41.2903705 792.029358,42.2636681 792.88418,43.0253906 C793.739002,43.7871132 795.029679,44.1679688 796.75625,44.1679688 C797.907297,44.1679688 800.497115,43.9563823 804.525781,43.5332031 L807.141016,38.9375 Z M801.732813,48.3574219 C799.549208,48.6282566 797.433344,48.7636719 795.385156,48.7636719 C793.083061,48.7636719 791.449614,48.4928412 790.484766,47.9511719 C789.519917,47.4095025 788.800523,46.5631568 788.326563,45.4121094 C787.107806,46.1907591 786.498438,47.1555932 786.498438,48.3066406 C786.498438,49.356125 786.972391,50.2193977 787.920313,50.8964844 C789.172923,51.7766971 791.314178,52.2167969 794.344141,52.2167969 C795.749096,52.2167969 797.534885,52.1236988 799.701563,51.9375 L801.732813,48.3574219 Z M801.123438,51.8359375 C805.169031,51.378904 807.978898,51.1503906 809.553125,51.1503906 C811.702875,51.1503906 813.344786,51.6370394 814.478906,52.6103516 C815.613027,53.5836637 816.180078,54.7473891 816.180078,56.1015625 C816.180078,57.2864643 815.625722,58.4374944 814.516992,59.5546875 C813.408263,60.6718806 811.07658,62.0006433 807.521875,63.5410156 L812.549219,65.0898438 C814.766678,63.7187431 816.476296,62.2376382 817.678125,60.6464844 C818.879954,59.0553306 819.480859,57.303395 819.480859,55.390625 C819.480859,54.1380146 819.104236,52.9065816 818.350977,51.6962891 C817.597718,50.4859966 816.442456,49.5211625 814.885156,48.8017578 C813.327857,48.0823532 811.533604,47.7226562 809.502344,47.7226562 C807.860408,47.7226562 805.761471,47.8919254 803.205469,48.2304688 L801.123438,51.8359375 Z M796.197656,60.3925781 C797.873446,60.7311215 799.240294,61.0442694 800.298242,61.3320312 C801.35619,61.6197931 803.239309,62.1953082 805.947656,63.0585938 C809.705488,61.2981683 811.584375,59.5462327 811.584375,57.8027344 C811.584375,57.261065 811.343167,56.7701845 810.860742,56.3300781 C810.378318,55.8899718 809.764717,55.6699219 809.019922,55.6699219 C808.105855,55.6699219 806.980215,55.7714834 805.642969,55.9746094 C801.918992,56.4824244 799.473053,56.7363281 798.305078,56.7363281 L796.197656,60.3925781 Z M799.422266,65.9023438 C795.088911,64.5989518 791.576576,63.9472656 788.885156,63.9472656 C787.497129,63.9472656 786.396879,64.2519501 785.584375,64.8613281 C785.025778,65.2675802 784.746484,65.7669241 784.746484,66.359375 C784.746484,66.9856802 785.025778,67.4850242 785.584375,67.8574219 C786.464588,68.4667999 787.74257,68.7714844 789.418359,68.7714844 C791.991289,68.7714844 795.325891,67.8151137 799.422266,65.9023438 Z M826.915625,44.7265625 L833.999609,35.9667969 L834.735938,35.9667969 L834.482031,42.9746094 L839.585547,42.9746094 L839.585547,45.84375 L834.482031,45.84375 L834.482031,62.9316406 L837.325781,65.0390625 L838.950781,63.7695312 L839.585547,64.53125 L833.999609,69 C832.086839,67.0533757 829.920194,65.7330764 827.499609,65.0390625 L827.499609,64.53125 C828.176696,64.0742165 828.625259,63.6002629 828.845313,63.109375 C829.133074,62.4830698 829.276953,61.5774799 829.276953,60.3925781 L829.276953,45.84375 L826.915625,45.84375 L826.915625,44.7265625 Z M860.096484,41.9335938 L864.641406,45.6914062 L862.584766,47.5703125 L862.584766,60.9003906 C862.584766,62.4407629 862.796352,63.5410123 863.219531,64.2011719 C863.490366,64.6582054 863.786587,64.8867188 864.108203,64.8867188 C864.345184,64.8867188 864.80221,64.6074247 865.479297,64.0488281 L866.139453,64.8613281 L860.782031,69 C859.427858,68.0520786 858.543427,67.2015012 858.128711,66.4482422 C857.713995,65.6949832 857.489714,64.497404 857.455859,62.8554688 C854.832148,64.5481855 852.157696,66.5963421 849.432422,69 C847.790487,67.7135352 846.715628,66.5836637 846.207813,65.6103516 C845.699998,64.6370394 845.446094,63.3548257 845.446094,61.7636719 L845.446094,49.2207031 C845.446094,48.3404904 845.378386,47.7649753 845.242969,47.4941406 C845.005988,47.0201799 844.684377,46.7832031 844.278125,46.7832031 C843.973436,46.7832031 843.516409,47.0455703 842.907031,47.5703125 L842.221484,46.859375 L847.858203,41.9335938 L852.453906,45.6914062 L850.575,47.4179688 L850.575,60.9003906 C850.575,61.8990935 850.701952,62.6311826 850.955859,63.0966797 C851.209767,63.5621768 851.827599,64.1503871 852.809375,64.8613281 L857.455859,61.4335938 L857.455859,47.5703125 L855.653125,45.6914062 L860.096484,41.9335938 Z M868.851563,33.2753906 L886.091797,45.1328125 C886.362632,44.5065073 886.663084,44.0325537 886.993164,43.7109375 C887.323244,43.3893213 887.82682,43.0846369 888.503906,42.796875 L888.503906,43.8378906 C888.165363,44.2949242 887.945313,44.7096336 887.84375,45.0820312 C887.742187,45.4544289 887.691406,46.2161401 887.691406,47.3671875 L887.691406,64.4550781 C885.541656,65.2675822 883.942063,65.9742808 882.892578,66.5751953 C881.843094,67.1761098 880.708991,67.9843699 879.490234,69 C877.492829,67.6966081 875.723966,66.7487009 874.183594,66.15625 C872.643222,65.5637991 870.984384,65.1575532 869.207031,64.9375 L869.207031,64.4550781 C869.816409,63.9303359 870.20996,63.4013699 870.387695,62.8681641 C870.565431,62.3349583 870.654297,61.2304771 870.654297,59.5546875 L870.654297,46.25 C872.973319,45.6067676 874.61523,44.8789103 875.580078,44.0664062 L868.851563,39.4707031 L868.851563,33.2753906 Z M882.511719,48.8144531 L877.306641,45.2089844 C876.83268,45.5983092 876.350263,45.9368475 875.859375,46.2246094 L875.859375,61.9160156 L882.511719,64.8613281 L882.511719,48.8144531 Z M903.936719,41.9335938 L911.096875,50.2871094 L899.721875,58.2597656 L899.721875,62.8808594 L905.6125,65.2167969 L909.598828,62.5 L910.157422,63.2617188 L901.930859,69 C900.25507,68.1028601 898.875526,67.4596374 897.792188,67.0703125 C896.708849,66.6809876 895.1685,66.2747417 893.171094,65.8515625 L893.171094,65.2167969 C893.746618,64.8782535 894.131705,64.4593124 894.326367,63.9599609 C894.52103,63.4606095 894.618359,62.3815187 894.618359,60.7226562 L894.618359,46.1992188 C896.209513,45.623695 897.529813,45.0989607 898.579297,44.625 C899.34102,44.2695295 901.126809,43.372403 903.936719,41.9335938 Z M900.077344,44.8535156 L899.721875,45.03125 L899.721875,56.5332031 L906.399609,51.8613281 L900.077344,44.8535156 Z M929.348047,41.9335938 L933.512109,45.8183594 L935.975,43.4316406 L936.685938,44.1171875 C935.501036,45.2005263 934.781642,46.0214816 934.527734,46.5800781 C934.189191,47.3248735 934.019922,48.3489518 934.019922,49.6523438 L934.019922,61.7128906 C934.019922,62.8300837 934.197655,63.6595025 934.553125,64.2011719 C934.773178,64.5566424 935.018619,64.734375 935.289453,64.734375 C935.526434,64.734375 936.085022,64.4043002 936.965234,63.7441406 L937.574609,64.53125 L932.115625,69 C930.71067,67.9335884 929.809312,66.989913 929.411524,66.1689453 C929.013735,65.3479777 928.814844,64.0234466 928.814844,62.1953125 L928.814844,48.2050781 L926.047266,45.8183594 L921.933984,49.09375 L921.933984,63.5410156 L923.762109,65.3691406 L919.267969,69 L914.748438,65.3691406 L916.728906,63.5410156 L916.728906,50.5664062 C916.728906,48.7213449 916.54271,47.4772168 916.170313,46.8339844 C915.916405,46.393878 915.628648,46.1738281 915.307031,46.1738281 C914.968488,46.1738281 914.460681,46.4361953 913.783594,46.9609375 L913.174219,46.25 L918.582422,41.9335938 C920.072013,42.9830782 921.002993,43.812497 921.375391,44.421875 C921.747788,45.031253 921.933984,45.8775988 921.933984,46.9609375 L921.933984,47.8242188 L929.348047,41.9335938 Z M939.93125,44.7265625 L947.015234,35.9667969 L947.751563,35.9667969 L947.497656,42.9746094 L952.601172,42.9746094 L952.601172,45.84375 L947.497656,45.84375 L947.497656,62.9316406 L950.341406,65.0390625 L951.966406,63.7695312 L952.601172,64.53125 L947.015234,69 C945.102465,67.0533757 942.93582,65.7330764 940.515234,65.0390625 L940.515234,64.53125 C941.192321,64.0742165 941.640884,63.6002629 941.860938,63.109375 C942.148699,62.4830698 942.292578,61.5774799 942.292578,60.3925781 L942.292578,45.84375 L939.93125,45.84375 L939.93125,44.7265625 Z" id="The-Amherst-Student"></path>
                    </g>
                </g>
            </g>
        </g>
    </g>
</svg>
